<?xml version="1.0" encoding="UTF-8" standalone="no"?>
<svg
   width="139.71466"
   zoomAndPan="magnify"
   viewBox="0 0 104.78599 32.922046"
   height="43.896061"
   preserveAspectRatio="xMidYMid"
   version="1.0"
   id="svg43"
   xmlns="http://www.w3.org/2000/svg"
   xmlns:svg="http://www.w3.org/2000/svg">
  <defs
     id="defs1" />
  <g
     fill="#f428f9"
     fill-opacity="1"
     id="g4"
     transform="translate(-3.631579,-0.162323)">
    <g
       transform="translate(4.194079,14.396698)"
       id="g3">
      <g
         id="g2">
        <path
           d="M 4.390625,0 H -0.5625 V -0.84375 H 0.359375 L 2.3125,-13.375 H 0.921875 v -0.859375 h 10.125 l 2.0625,13.390625 h 0.9375 V 0 h -6.5 l -0.3125,-3.359375 h -2.84375 z m 0,-12.890625 V -4.59375 H 7.125 l -0.734375,-8.296875 z m 0,0"
           id="path1" />
      </g>
    </g>
  </g>
  <g
     fill="#f428f9"
     fill-opacity="1"
     id="g7"
     transform="translate(-3.631579,-0.162323)">
    <g
       transform="translate(17.68408,14.396698)"
       id="g6">
      <g
         id="g5">
        <path
           d="m 1.796875,-3.359375 v -8.109375 h -0.90625 v -0.859375 h 5.15625 v 10.625 H 9.34375 v -10.625 h 4.25 V -0.84375 H 14.5 V 0 H 11.734375 L 10.84375,-1.703125 h -0.296875 c 0,0.855469 -0.3125,1.414063 -0.9375,1.671875 -0.625,0.25 -1.46875,0.375 -2.53125,0.375 C 6.484375,0.34375 5.875,0.316406 5.25,0.265625 4.632812,0.222656 4.0625,0.09375 3.53125,-0.125 3.007812,-0.34375 2.585938,-0.703125 2.265625,-1.203125 c -0.3125,-0.507813 -0.46875,-1.226563 -0.46875,-2.15625 z m 0,0"
           id="path4" />
      </g>
    </g>
  </g>
  <g
     fill="#f428f9"
     fill-opacity="1"
     id="g10"
     transform="translate(-3.631579,-0.162323)">
    <g
       transform="translate(33.190856,14.396698)"
       id="g9">
      <g
         id="g8">
        <path
           d="M 1.015625,-12.328125 H 3.71875 L 4.171875,-10.625 H 4.34375 c 0.257812,-0.789062 0.597656,-1.328125 1.015625,-1.609375 0.425781,-0.28125 0.945313,-0.421875 1.5625,-0.421875 0.4375,0 0.90625,0.04297 1.40625,0.125 l -0.46875,3.703125 H 4.6875 v 1.1875 c 0,0.28125 0.066406,0.449219 0.203125,0.5 0.132813,0.054687 0.289063,0.078125 0.46875,0.078125 H 6.15625 v 6.21875 H 7.984375 V 0 H 1.015625 V -0.84375 H 1.90625 v -10.625 H 1.015625 Z m 0,0"
           id="path7" />
      </g>
    </g>
  </g>
  <g
     fill="#f428f9"
     fill-opacity="1"
     id="g13"
     transform="translate(-3.631579,-0.162323)">
    <g
       transform="translate(41.952633,14.396698)"
       id="g12">
      <g
         id="g11">
        <path
           d="m 13.15625,-7.03125 v 1.75 c 0,1.117188 -0.109375,2.027344 -0.328125,2.734375 -0.21875,0.710937 -0.527344,1.261719 -0.921875,1.65625 -0.398438,0.398437 -0.855469,0.683594 -1.375,0.859375 -0.511719,0.164062 -1.074219,0.269531 -1.6875,0.3125 -0.605469,0.039062 -1.234375,0.0625 -1.890625,0.0625 -0.742187,0 -1.449219,-0.039062 -2.125,-0.109375 C 4.160156,0.171875 3.5625,-0.0234375 3.03125,-0.359375 2.5,-0.703125 2.082031,-1.257812 1.78125,-2.03125 c -0.292969,-0.769531 -0.4375,-1.851562 -0.4375,-3.25 v -1.75 c 0,-1.125 0.109375,-2.039062 0.328125,-2.75 0.21875,-0.707031 0.523437,-1.257812 0.921875,-1.65625 0.394531,-0.394531 0.847656,-0.675781 1.359375,-0.84375 0.519531,-0.175781 1.082031,-0.28125 1.6875,-0.3125 0.613281,-0.03906 1.25,-0.0625 1.90625,-0.0625 0.75,0 1.457031,0.03906 2.125,0.109375 0.664063,0.0625 1.257813,0.261719 1.78125,0.59375 0.53125,0.335937 0.945313,0.886719 1.25,1.65625 0.300781,0.773437 0.453125,1.859375 0.453125,3.265625 z m -4.265625,5.6875 v -9.640625 h -3.28125 v 9.640625 z m 0,0"
           id="path10" />
      </g>
    </g>
  </g>
  <g
     fill="#f428f9"
     fill-opacity="1"
     id="g16"
     transform="translate(-3.631579,-0.162323)">
    <g
       transform="translate(56.451024,14.396698)"
       id="g15">
      <g
         id="g14">
        <path
           d="M 1.015625,-12.328125 H 3.71875 L 4.171875,-10.625 H 4.34375 c 0.257812,-0.789062 0.597656,-1.328125 1.015625,-1.609375 0.425781,-0.28125 0.945313,-0.421875 1.5625,-0.421875 0.4375,0 0.90625,0.04297 1.40625,0.125 l -0.46875,3.703125 H 4.6875 v 1.1875 c 0,0.28125 0.066406,0.449219 0.203125,0.5 0.132813,0.054687 0.289063,0.078125 0.46875,0.078125 H 6.15625 v 6.21875 H 7.984375 V 0 H 1.015625 V -0.84375 H 1.90625 v -10.625 H 1.015625 Z m 0,0"
           id="path13" />
      </g>
    </g>
  </g>
  <g
     fill="#f428f9"
     fill-opacity="1"
     id="g19"
     transform="translate(-3.631579,-0.162323)">
    <g
       transform="translate(65.212798,14.396698)"
       id="g18">
      <g
         id="g17">
        <path
           d="m 2.0625,-8.484375 -0.53125,-3.5 c 0.757812,-0.207031 1.597656,-0.367187 2.515625,-0.484375 0.925781,-0.125 1.78125,-0.1875 2.5625,-0.1875 0.582031,0 1.1875,0.03906 1.8125,0.109375 0.625,0.0625 1.210937,0.210937 1.765625,0.4375 0.5625,0.21875 1.007812,0.554687 1.34375,1 0.34375,0.449219 0.515625,1.054687 0.515625,1.8125 v 8.453125 h 0.90625 V 0 H 10.1875 L 9.296875,-1.703125 H 9 c -0.210938,0.59375 -0.4375,1.039063 -0.6875,1.328125 -0.25,0.2929688 -0.585938,0.484375 -1,0.578125 C 6.90625,0.296875 6.375,0.34375 5.71875,0.34375 5.144531,0.34375 4.570312,0.316406 4,0.265625 3.425781,0.222656 2.894531,0.09375 2.40625,-0.125 1.925781,-0.34375 1.535156,-0.703125 1.234375,-1.203125 0.929688,-1.710938 0.78125,-2.429688 0.78125,-3.359375 c 0,-0.820313 0.125,-1.476563 0.375,-1.96875 0.257812,-0.5 0.613281,-0.867187 1.0625,-1.109375 0.445312,-0.25 0.953125,-0.414062 1.515625,-0.5 0.570313,-0.082031 1.171875,-0.125 1.796875,-0.125 h 2.265625 v -3.921875 H 5.25 l -0.609375,2.5 z m 5.734375,6.78125 V -5.375 h -3.0625 v 3.671875 z m 0,0"
           id="path16" />
      </g>
    </g>
  </g>
  <g
     fill="#f428f9"
     fill-opacity="1"
     id="g22"
     transform="translate(-3.631579,-0.162323)">
    <g
       transform="translate(4.194079,32.74062)"
       id="g21">
      <g
         id="g20">
        <path
           d="M 0.671875,0 V -0.84375 H 1.65625 V -13.375 H 0.671875 v -0.859375 h 11.34375 V -9.4375 h -2.625 L 8.46875,-12.890625 h -2 V -7.59375 H 10.75 v 1.234375 H 6.46875 v 5.015625 h 2 l 0.921875,-3.453125 h 2.625 V 0 Z m 0,0"
           id="path19" />
      </g>
    </g>
  </g>
  <g
     fill="#f428f9"
     fill-opacity="1"
     id="g25"
     transform="translate(-3.631579,-0.162323)">
    <g
       transform="translate(16.989414,32.74062)"
       id="g24">
      <g
         id="g23">
        <path
           d="M 6.296875,0.34375 C 5.515625,0.34375 4.644531,0.273438 3.6875,0.140625 2.738281,0.015625 1.882812,-0.144531 1.125,-0.34375 L 1.65625,-3.828125 H 4.234375 L 4.84375,-1.34375 H 7.390625 V -2.953125 L 3.203125,-5.84375 C 2.609375,-6.25 2.15625,-6.695312 1.84375,-7.1875 c -0.304688,-0.5 -0.453125,-1.203125 -0.453125,-2.109375 0,-0.757813 0.140625,-1.363281 0.421875,-1.8125 0.28125,-0.445313 0.671875,-0.78125 1.171875,-1 0.5,-0.226563 1.070313,-0.375 1.71875,-0.4375 0.644531,-0.07031 1.328125,-0.109375 2.046875,-0.109375 0.695312,0 1.472656,0.0625 2.328125,0.1875 0.863281,0.117188 1.640625,0.277344 2.328125,0.484375 l -0.546875,3.5 h -2.34375 l -0.53125,-2.5 h -2.34375 v 1.625 L 9.84375,-6.46875 c 0.59375,0.398438 1.039062,0.84375 1.34375,1.34375 0.3125,0.492188 0.46875,1.1875 0.46875,2.09375 0,0.773438 -0.148438,1.382812 -0.4375,1.828125 -0.28125,0.449219 -0.671875,0.789063 -1.171875,1.015625 -0.5,0.21875 -1.074219,0.359375 -1.71875,0.421875 -0.636719,0.070313 -1.3125,0.109375 -2.03125,0.109375 z m 0,0"
           id="path22" />
      </g>
    </g>
  </g>
  <g
     fill="#f428f9"
     fill-opacity="1"
     id="g28"
     transform="translate(-3.631579,-0.162323)">
    <g
       transform="translate(29.762337,32.74062)"
       id="g27">
      <g
         id="g26">
        <path
           d="M 0.890625,-12.328125 H 3.65625 L 4.546875,-10.625 H 4.84375 c 0.21875,-0.59375 0.476562,-1.035156 0.78125,-1.328125 0.3125,-0.289063 0.691406,-0.476563 1.140625,-0.5625 0.445313,-0.09375 0.976563,-0.140625 1.59375,-0.140625 0.664063,0 1.3125,0.03906 1.9375,0.109375 0.632813,0.07422 1.203125,0.28125 1.703125,0.625 0.5,0.335937 0.894531,0.886719 1.1875,1.65625 0.289062,0.761719 0.4375,1.839844 0.4375,3.234375 V -5.625 c 0,1.125 -0.109375,2.042969 -0.328125,2.75 -0.21875,0.710938 -0.527344,1.261719 -0.921875,1.65625 -0.398438,0.398438 -0.855469,0.683594 -1.375,0.859375 -0.511719,0.167969 -1.074219,0.2734375 -1.6875,0.3125 C 8.707031,-0.015625 8.078125,0 7.421875,0 7.191406,0 6.960938,0 6.734375,0 6.515625,-0.0078125 6.296875,-0.0234375 6.078125,-0.046875 V 3.1875 H 7.28125 V 4.03125 H 1.796875 v -15.5 H 0.890625 Z M 9.359375,-1.6875 v -8.9375 h -3.28125 v 8.9375 z m 0,0"
           id="path25" />
      </g>
    </g>
  </g>
  <g
     fill="#f428f9"
     fill-opacity="1"
     id="g31"
     transform="translate(-3.631579,-0.162323)">
    <g
       transform="translate(44.731305,32.74062)"
       id="g30">
      <g
         id="g29">
        <path
           d="m 4.171875,-13.421875 c -0.679687,0 -1.199219,-0.03516 -1.5625,-0.109375 C 2.253906,-13.60156 2.007812,-13.773438 1.875,-14.046875 1.75,-14.316406 1.6875,-14.726562 1.6875,-15.28125 c 0,-0.5625 0.0625,-0.972656 0.1875,-1.234375 0.132812,-0.269531 0.378906,-0.441406 0.734375,-0.515625 0.363281,-0.07031 0.882813,-0.109375 1.5625,-0.109375 0.59375,0 1.046875,0.03906 1.359375,0.109375 0.3125,0.07422 0.523438,0.246094 0.640625,0.515625 0.125,0.261719 0.1875,0.671875 0.1875,1.234375 0,0.554688 -0.0625,0.964844 -0.1875,1.234375 -0.117187,0.273437 -0.328125,0.445313 -0.640625,0.515625 -0.3125,0.07422 -0.765625,0.109375 -1.359375,0.109375 z M 7.0625,0 H 1.015625 V -0.84375 H 1.90625 v -10.625 H 1.015625 v -0.859375 H 6.15625 V -0.84375 H 7.0625 Z m 0,0"
           id="path28" />
      </g>
    </g>
  </g>
  <g
     fill="#f428f9"
     fill-opacity="1"
     id="g34"
     transform="translate(-3.631579,-0.162323)">
    <g
       transform="translate(52.686368,32.74062)"
       id="g33">
      <g
         id="g32">
        <path
           d="M 14.609375,0 H 9.453125 V -10.625 H 6.15625 V 0 H 1.015625 V -0.84375 H 1.90625 v -10.625 H 1.015625 v -0.859375 h 2.96875 L 4.765625,-10.625 H 5.0625 c 0.226562,-0.59375 0.523438,-1.035156 0.890625,-1.328125 0.375,-0.289063 0.835937,-0.476563 1.390625,-0.5625 0.550781,-0.09375 1.203125,-0.140625 1.953125,-0.140625 0.914063,0 1.703125,0.101562 2.359375,0.296875 0.65625,0.1875 1.160156,0.527344 1.515625,1.015625 0.363281,0.480469 0.546875,1.164062 0.546875,2.046875 v 8.453125 h 0.890625 z m 0,0"
           id="path31" />
      </g>
    </g>
  </g>
  <g
     fill="#f428f9"
     fill-opacity="1"
     id="g37"
     transform="translate(-3.631579,-0.162323)">
    <g
       transform="translate(68.193144,32.74062)"
       id="g36">
      <g
         id="g35">
        <path
           d="m 13.15625,-7.03125 v 1.75 c 0,1.117188 -0.109375,2.027344 -0.328125,2.734375 -0.21875,0.710937 -0.527344,1.261719 -0.921875,1.65625 -0.398438,0.398437 -0.855469,0.683594 -1.375,0.859375 -0.511719,0.164062 -1.074219,0.269531 -1.6875,0.3125 -0.605469,0.039062 -1.234375,0.0625 -1.890625,0.0625 -0.742187,0 -1.449219,-0.039062 -2.125,-0.109375 C 4.160156,0.171875 3.5625,-0.0234375 3.03125,-0.359375 2.5,-0.703125 2.082031,-1.257812 1.78125,-2.03125 c -0.292969,-0.769531 -0.4375,-1.851562 -0.4375,-3.25 v -1.75 c 0,-1.125 0.109375,-2.039062 0.328125,-2.75 0.21875,-0.707031 0.523437,-1.257812 0.921875,-1.65625 0.394531,-0.394531 0.847656,-0.675781 1.359375,-0.84375 0.519531,-0.175781 1.082031,-0.28125 1.6875,-0.3125 0.613281,-0.03906 1.25,-0.0625 1.90625,-0.0625 0.75,0 1.457031,0.03906 2.125,0.109375 0.664063,0.0625 1.257813,0.261719 1.78125,0.59375 0.53125,0.335937 0.945313,0.886719 1.25,1.65625 0.300781,0.773437 0.453125,1.859375 0.453125,3.265625 z m -4.265625,5.6875 v -9.640625 h -3.28125 v 9.640625 z m 0,0"
           id="path34" />
      </g>
    </g>
  </g>
  <g
     fill="#f428f9"
     fill-opacity="1"
     id="g40"
     transform="translate(-3.631579,-0.162323)">
    <g
       transform="translate(82.691532,32.74062)"
       id="g39">
      <g
         id="g38">
        <path
           d="M 6.296875,0.34375 C 5.515625,0.34375 4.644531,0.273438 3.6875,0.140625 2.738281,0.015625 1.882812,-0.144531 1.125,-0.34375 L 1.65625,-3.828125 H 4.234375 L 4.84375,-1.34375 H 7.390625 V -2.953125 L 3.203125,-5.84375 C 2.609375,-6.25 2.15625,-6.695312 1.84375,-7.1875 c -0.304688,-0.5 -0.453125,-1.203125 -0.453125,-2.109375 0,-0.757813 0.140625,-1.363281 0.421875,-1.8125 0.28125,-0.445313 0.671875,-0.78125 1.171875,-1 0.5,-0.226563 1.070313,-0.375 1.71875,-0.4375 0.644531,-0.07031 1.328125,-0.109375 2.046875,-0.109375 0.695312,0 1.472656,0.0625 2.328125,0.1875 0.863281,0.117188 1.640625,0.277344 2.328125,0.484375 l -0.546875,3.5 h -2.34375 l -0.53125,-2.5 h -2.34375 v 1.625 L 9.84375,-6.46875 c 0.59375,0.398438 1.039062,0.84375 1.34375,1.34375 0.3125,0.492188 0.46875,1.1875 0.46875,2.09375 0,0.773438 -0.148438,1.382812 -0.4375,1.828125 -0.28125,0.449219 -0.671875,0.789063 -1.171875,1.015625 -0.5,0.21875 -1.074219,0.359375 -1.71875,0.421875 -0.636719,0.070313 -1.3125,0.109375 -2.03125,0.109375 z m 0,0"
           id="path37" />
      </g>
    </g>
  </g>
  <g
     fill="#f428f9"
     fill-opacity="1"
     id="g43"
     transform="translate(-3.631579,-0.162323)">
    <g
       transform="translate(95.464451,32.74062)"
       id="g42">
      <g
         id="g41">
        <path
           d="m 2.0625,-8.484375 -0.53125,-3.5 c 0.757812,-0.207031 1.597656,-0.367187 2.515625,-0.484375 0.925781,-0.125 1.78125,-0.1875 2.5625,-0.1875 0.582031,0 1.1875,0.03906 1.8125,0.109375 0.625,0.0625 1.210937,0.210937 1.765625,0.4375 0.5625,0.21875 1.007812,0.554687 1.34375,1 0.34375,0.449219 0.515625,1.054687 0.515625,1.8125 v 8.453125 h 0.90625 V 0 H 10.1875 L 9.296875,-1.703125 H 9 c -0.210938,0.59375 -0.4375,1.039063 -0.6875,1.328125 -0.25,0.2929688 -0.585938,0.484375 -1,0.578125 C 6.90625,0.296875 6.375,0.34375 5.71875,0.34375 5.144531,0.34375 4.570312,0.316406 4,0.265625 3.425781,0.222656 2.894531,0.09375 2.40625,-0.125 1.925781,-0.34375 1.535156,-0.703125 1.234375,-1.203125 0.929688,-1.710938 0.78125,-2.429688 0.78125,-3.359375 c 0,-0.820313 0.125,-1.476563 0.375,-1.96875 0.257812,-0.5 0.613281,-0.867187 1.0625,-1.109375 0.445312,-0.25 0.953125,-0.414062 1.515625,-0.5 0.570313,-0.082031 1.171875,-0.125 1.796875,-0.125 h 2.265625 v -3.921875 H 5.25 l -0.609375,2.5 z m 5.734375,6.78125 V -5.375 h -3.0625 v 3.671875 z m 0,0"
           id="path40" />
      </g>
    </g>
  </g>
</svg>
