<?xml version="1.0" encoding="UTF-8" standalone="no"?>
<svg
   width="296.04123"
   zoomAndPan="magnify"
   viewBox="0 0 221.9125 77.985029"
   height="103.98004"
   preserveAspectRatio="xMidYMid"
   version="1.0"
   id="svg44"
   xmlns="http://www.w3.org/2000/svg"
   xmlns:svg="http://www.w3.org/2000/svg">
  <defs
     id="defs1">
    <clipPath
       id="c477196e58">
      <path
         d="M 0.4375,22 H 31 V 53 H 0.4375 Z m 0,0"
         clip-rule="nonzero"
         id="path1" />
    </clipPath>
  </defs>
  <g
     clip-path="url(#c477196e58)"
     id="g5"
     transform="translate(-0.497502,-22.073383)">
    <g
       fill="#f428f9"
       fill-opacity="1"
       id="g4">
      <g
         transform="translate(0.437786,52.385884)"
         id="g3">
        <g
           id="g2">
          <path
             d="M 9.359375,0 H -1.1875 V -1.8125 H 0.765625 L 4.921875,-28.5 h -2.96875 v -1.8125 H 23.53125 l 4.390625,28.5 h 2 V 0 H 16.09375 l -0.671875,-7.15625 h -6.0625 z m 0,-27.453125 V -9.78125 h 5.8125 l -1.5625,-17.671875 z m 0,0"
             id="path2" />
        </g>
      </g>
    </g>
  </g>
  <g
     fill="#f428f9"
     fill-opacity="1"
     id="g8"
     transform="translate(-0.497502,-22.073383)">
    <g
       transform="translate(29.176072,52.385884)"
       id="g7">
      <g
         id="g6">
        <path
           d="M 3.8125,-7.15625 V -24.4375 H 1.90625 V -26.25 H 12.890625 V -3.625 H 19.90625 V -26.25 h 9.0625 v 24.4375 h 1.921875 V 0 h -5.875 l -1.90625,-3.625 h -0.625 c 0,1.8125 -0.671875,2.992188 -2.015625,3.53125 -1.335938,0.539062 -3.132812,0.8125 -5.390625,0.8125 -1.273437,0 -2.570313,-0.054688 -3.890625,-0.15625 C 9.875,0.46875 8.660156,0.191406 7.546875,-0.265625 6.429688,-0.722656 5.53125,-1.492188 4.84375,-2.578125 4.15625,-3.660156 3.8125,-5.1875 3.8125,-7.15625 Z m 0,0"
           id="path5" />
      </g>
    </g>
  </g>
  <g
     fill="#f428f9"
     fill-opacity="1"
     id="g11"
     transform="translate(-0.497502,-22.073383)">
    <g
       transform="translate(62.210771,52.385884)"
       id="g10">
      <g
         id="g9">
        <path
           d="m 2.140625,-26.25 h 5.78125 L 8.875,-22.625 h 0.390625 c 0.539063,-1.6875 1.265625,-2.832031 2.171875,-3.4375 0.90625,-0.601562 2.007812,-0.90625 3.3125,-0.90625 0.925781,0 1.925781,0.09375 3,0.28125 l -1,7.875 H 9.96875 v 2.53125 c 0,0.605469 0.140625,0.964844 0.421875,1.078125 0.289063,0.117187 0.628906,0.171875 1.015625,0.171875 H 13.125 V -1.8125 H 17 V 0 H 2.140625 V -1.8125 H 4.0625 v -22.625 H 2.140625 Z m 0,0"
           id="path8" />
      </g>
    </g>
  </g>
  <g
     fill="#f428f9"
     fill-opacity="1"
     id="g14"
     transform="translate(-0.497502,-22.073383)">
    <g
       transform="translate(80.876332,52.385884)"
       id="g13">
      <g
         id="g12">
        <path
           d="m 28.015625,-14.984375 v 3.71875 c 0,2.386719 -0.230469,4.335937 -0.6875,5.84375 -0.460937,1.511719 -1.109375,2.6875 -1.953125,3.53125 -0.84375,0.84375 -1.820312,1.453125 -2.921875,1.828125 -1.09375,0.363281 -2.296875,0.582031 -3.609375,0.65625 -1.304688,0.082031 -2.652344,0.125 -4.046875,0.125 -1.5625,0 -3.0625,-0.074219 -4.5,-0.21875 C 8.867188,0.351562 7.585938,-0.0703125 6.453125,-0.78125 5.328125,-1.5 4.445312,-2.675781 3.8125,-4.3125 3.175781,-5.957031 2.859375,-8.273438 2.859375,-11.265625 v -3.71875 c 0,-2.382813 0.226563,-4.332031 0.6875,-5.84375 0.46875,-1.519531 1.125,-2.703125 1.96875,-3.546875 0.84375,-0.84375 1.8125,-1.445312 2.90625,-1.8125 1.101563,-0.363281 2.304687,-0.582031 3.609375,-0.65625 1.300781,-0.08203 2.65625,-0.125 4.0625,-0.125 1.582031,0 3.082031,0.07422 4.5,0.21875 1.414062,0.136719 2.6875,0.5625 3.8125,1.28125 1.132812,0.71875 2.019531,1.902344 2.65625,3.546875 0.632812,1.636719 0.953125,3.949219 0.953125,6.9375 z m -9.0625,12.125 v -20.53125 H 11.9375 v 20.53125 z m 0,0"
           id="path11" />
      </g>
    </g>
  </g>
  <g
     fill="#f428f9"
     fill-opacity="1"
     id="g17"
     transform="translate(-0.497502,-22.073383)">
    <g
       transform="translate(111.76283,52.385884)"
       id="g16">
      <g
         id="g15">
        <path
           d="m 2.140625,-26.25 h 5.78125 L 8.875,-22.625 h 0.390625 c 0.539063,-1.6875 1.265625,-2.832031 2.171875,-3.4375 0.90625,-0.601562 2.007812,-0.90625 3.3125,-0.90625 0.925781,0 1.925781,0.09375 3,0.28125 l -1,7.875 H 9.96875 v 2.53125 c 0,0.605469 0.140625,0.964844 0.421875,1.078125 0.289063,0.117187 0.628906,0.171875 1.015625,0.171875 H 13.125 V -1.8125 H 17 V 0 H 2.140625 V -1.8125 H 4.0625 v -22.625 H 2.140625 Z m 0,0"
           id="path14" />
      </g>
    </g>
  </g>
  <g
     fill="#f428f9"
     fill-opacity="1"
     id="g20"
     transform="translate(-0.497502,-22.073383)">
    <g
       transform="translate(130.42839,52.385884)"
       id="g19">
      <g
         id="g18">
        <path
           d="M 4.390625,-18.09375 3.25,-25.53125 c 1.625,-0.445312 3.421875,-0.796875 5.390625,-1.046875 1.96875,-0.257813 3.78125,-0.390625 5.4375,-0.390625 1.238281,0 2.523437,0.07422 3.859375,0.21875 1.34375,0.136719 2.601562,0.445312 3.78125,0.921875 1.175781,0.480469 2.128906,1.199219 2.859375,2.15625 0.738281,0.949219 1.109375,2.234375 1.109375,3.859375 v 18 h 1.90625 V 0 h -5.875 L 19.8125,-3.625 h -0.625 c -0.449219,1.273438 -0.945312,2.21875 -1.484375,2.84375 -0.542969,0.617188 -1.25,1.015625 -2.125,1.203125 -0.875,0.195313 -2.011719,0.296875 -3.40625,0.296875 -1.210937,0 -2.429687,-0.054688 -3.65625,-0.15625 C 7.296875,0.46875 6.164062,0.191406 5.125,-0.265625 4.09375,-0.722656 3.257812,-1.492188 2.625,-2.578125 1.988281,-3.660156 1.671875,-5.1875 1.671875,-7.15625 c 0,-1.75 0.269531,-3.148438 0.8125,-4.203125 0.539063,-1.050781 1.285156,-1.835937 2.234375,-2.359375 0.957031,-0.53125 2.039062,-0.878906 3.25,-1.046875 1.207031,-0.175781 2.484375,-0.265625 3.828125,-0.265625 h 4.8125 v -8.359375 h -5.4375 L 9.875,-18.09375 Z M 16.609375,-3.625 v -7.828125 h -6.53125 V -3.625 Z m 0,0"
           id="path17" />
      </g>
    </g>
  </g>
  <g
     fill="#f428f9"
     fill-opacity="1"
     id="g23"
     transform="translate(-0.497502,-22.073383)">
    <g
       transform="translate(0.437786,91.46467)"
       id="g22">
      <g
         id="g21">
        <path
           d="M 1.4375,0 V -1.8125 H 3.53125 V -28.5 H 1.4375 v -1.8125 h 24.140625 v 10.21875 H 20 l -1.953125,-7.359375 h -4.25 V -16.1875 h 9.109375 v 2.625 h -9.109375 v 10.703125 h 4.25 L 20,-10.21875 h 5.578125 V 0 Z m 0,0"
           id="path20" />
      </g>
    </g>
  </g>
  <g
     fill="#f428f9"
     fill-opacity="1"
     id="g26"
     transform="translate(-0.497502,-22.073383)">
    <g
       transform="translate(27.696196,91.46467)"
       id="g25">
      <g
         id="g24">
        <path
           d="M 13.40625,0.71875 C 11.757812,0.71875 9.914062,0.582031 7.875,0.3125 5.84375,0.0390625 4.015625,-0.300781 2.390625,-0.71875 L 3.53125,-8.15625 H 9.015625 L 10.3125,-2.859375 H 15.75 v -3.4375 l -8.921875,-6.15625 C 5.554688,-13.316406 4.59375,-14.269531 3.9375,-15.3125 c -0.65625,-1.050781 -0.984375,-2.550781 -0.984375,-4.5 0,-1.625 0.300781,-2.910156 0.90625,-3.859375 0.601563,-0.957031 1.4375,-1.675781 2.5,-2.15625 1.070313,-0.476563 2.289063,-0.785156 3.65625,-0.921875 1.375,-0.144531 2.828125,-0.21875 4.359375,-0.21875 1.488281,0 3.144531,0.132812 4.96875,0.390625 1.832031,0.25 3.484375,0.601563 4.953125,1.046875 l -1.140625,7.4375 H 18.140625 L 17,-23.390625 h -4.96875 v 3.4375 l 8.921875,6.15625 c 1.269531,0.867187 2.234375,1.824219 2.890625,2.875 0.65625,1.042969 0.984375,2.539063 0.984375,4.484375 0,1.617188 -0.304687,2.902344 -0.90625,3.859375 -0.605469,0.960937 -1.445313,1.679687 -2.515625,2.15625 C 20.34375,0.046875 19.125,0.351562 17.75,0.5 16.382812,0.644531 14.9375,0.71875 13.40625,0.71875 Z m 0,0"
           id="path23" />
      </g>
    </g>
  </g>
  <g
     fill="#f428f9"
     fill-opacity="1"
     id="g29"
     transform="translate(-0.497502,-22.073383)">
    <g
       transform="translate(54.906861,91.46467)"
       id="g28">
      <g
         id="g27">
        <path
           d="m 1.90625,-26.25 h 5.875 l 1.90625,3.625 h 0.625 c 0.476562,-1.269531 1.039062,-2.210938 1.6875,-2.828125 0.65625,-0.625 1.457031,-1.03125 2.40625,-1.21875 0.957031,-0.195313 2.09375,-0.296875 3.40625,-0.296875 1.425781,0 2.804688,0.07813 4.140625,0.234375 1.34375,0.15625 2.546875,0.59375 3.609375,1.3125 1.0625,0.71875 1.898438,1.902344 2.515625,3.546875 0.625,1.636719 0.9375,3.933594 0.9375,6.890625 v 3 c 0,2.386719 -0.230469,4.339844 -0.6875,5.859375 -0.460937,1.511719 -1.109375,2.6875 -1.953125,3.53125 -0.84375,0.835938 -1.820312,1.4375 -2.921875,1.8125 -1.09375,0.367188 -2.292969,0.589844 -3.59375,0.671875 C 18.554688,-0.0351562 17.203125,0 15.796875,0 15.316406,0 14.835938,-0.00390625 14.359375,-0.015625 13.890625,-0.0351562 13.414062,-0.0625 12.9375,-0.09375 v 6.875 h 2.578125 v 1.8125 H 3.8125 V -24.4375 H 1.90625 Z M 19.953125,-3.578125 V -22.625 H 12.9375 v 19.046875 z m 0,0"
           id="path26" />
      </g>
    </g>
  </g>
  <g
     fill="#f428f9"
     fill-opacity="1"
     id="g32"
     transform="translate(-0.497502,-22.073383)">
    <g
       transform="translate(86.795848,91.46467)"
       id="g31">
      <g
         id="g30">
        <path
           d="m 8.875,-28.59375 c -1.429688,0 -2.527344,-0.07813 -3.296875,-0.234375 C 4.816406,-28.984375 4.289062,-29.347656 4,-29.921875 3.71875,-30.492188 3.578125,-31.375 3.578125,-32.5625 c 0,-1.207031 0.140625,-2.085938 0.421875,-2.640625 0.289062,-0.5625 0.816406,-0.921875 1.578125,-1.078125 0.769531,-0.15625 1.867187,-0.234375 3.296875,-0.234375 1.269531,0 2.238281,0.07813 2.90625,0.234375 0.675781,0.15625 1.140625,0.515625 1.390625,1.078125 0.257813,0.554687 0.390625,1.433594 0.390625,2.640625 0,1.1875 -0.132812,2.070312 -0.390625,2.640625 -0.25,0.574219 -0.714844,0.9375 -1.390625,1.09375 -0.667969,0.15625 -1.636719,0.234375 -2.90625,0.234375 z M 15.03125,0 H 2.140625 V -1.8125 H 4.0625 v -22.625 H 2.140625 V -26.25 H 13.125 v 24.4375 h 1.90625 z m 0,0"
           id="path29" />
      </g>
    </g>
  </g>
  <g
     fill="#f428f9"
     fill-opacity="1"
     id="g35"
     transform="translate(-0.497502,-22.073383)">
    <g
       transform="translate(103.74284,91.46467)"
       id="g34">
      <g
         id="g33">
        <path
           d="M 31.125,0 H 20.140625 V -22.625 H 13.125 V 0 H 2.140625 V -1.8125 H 4.0625 v -22.625 H 2.140625 V -26.25 H 8.5 l 1.671875,3.625 h 0.609375 c 0.476562,-1.269531 1.113281,-2.210938 1.90625,-2.828125 0.800781,-0.625 1.789062,-1.03125 2.96875,-1.21875 1.175781,-0.195313 2.5625,-0.296875 4.15625,-0.296875 1.9375,0 3.601562,0.210938 5,0.625 1.40625,0.40625 2.488281,1.132812 3.25,2.171875 0.769531,1.03125 1.15625,2.484375 1.15625,4.359375 v 18 H 31.125 Z m 0,0"
           id="path32" />
      </g>
    </g>
  </g>
  <g
     fill="#f428f9"
     fill-opacity="1"
     id="g38"
     transform="translate(-0.497502,-22.073383)">
    <g
       transform="translate(136.77753,91.46467)"
       id="g37">
      <g
         id="g36">
        <path
           d="m 28.015625,-14.984375 v 3.71875 c 0,2.386719 -0.230469,4.335937 -0.6875,5.84375 -0.460937,1.511719 -1.109375,2.6875 -1.953125,3.53125 -0.84375,0.84375 -1.820312,1.453125 -2.921875,1.828125 -1.09375,0.363281 -2.296875,0.582031 -3.609375,0.65625 -1.304688,0.082031 -2.652344,0.125 -4.046875,0.125 -1.5625,0 -3.0625,-0.074219 -4.5,-0.21875 C 8.867188,0.351562 7.585938,-0.0703125 6.453125,-0.78125 5.328125,-1.5 4.445312,-2.675781 3.8125,-4.3125 3.175781,-5.957031 2.859375,-8.273438 2.859375,-11.265625 v -3.71875 c 0,-2.382813 0.226563,-4.332031 0.6875,-5.84375 0.46875,-1.519531 1.125,-2.703125 1.96875,-3.546875 0.84375,-0.84375 1.8125,-1.445312 2.90625,-1.8125 1.101563,-0.363281 2.304687,-0.582031 3.609375,-0.65625 1.300781,-0.08203 2.65625,-0.125 4.0625,-0.125 1.582031,0 3.082031,0.07422 4.5,0.21875 1.414062,0.136719 2.6875,0.5625 3.8125,1.28125 1.132812,0.71875 2.019531,1.902344 2.65625,3.546875 0.632812,1.636719 0.953125,3.949219 0.953125,6.9375 z m -9.0625,12.125 v -20.53125 H 11.9375 v 20.53125 z m 0,0"
           id="path35" />
      </g>
    </g>
  </g>
  <g
     fill="#f428f9"
     fill-opacity="1"
     id="g41"
     transform="translate(-0.497502,-22.073383)">
    <g
       transform="translate(167.66403,91.46467)"
       id="g40">
      <g
         id="g39">
        <path
           d="M 13.40625,0.71875 C 11.757812,0.71875 9.914062,0.582031 7.875,0.3125 5.84375,0.0390625 4.015625,-0.300781 2.390625,-0.71875 L 3.53125,-8.15625 H 9.015625 L 10.3125,-2.859375 H 15.75 v -3.4375 l -8.921875,-6.15625 C 5.554688,-13.316406 4.59375,-14.269531 3.9375,-15.3125 c -0.65625,-1.050781 -0.984375,-2.550781 -0.984375,-4.5 0,-1.625 0.300781,-2.910156 0.90625,-3.859375 0.601563,-0.957031 1.4375,-1.675781 2.5,-2.15625 1.070313,-0.476563 2.289063,-0.785156 3.65625,-0.921875 1.375,-0.144531 2.828125,-0.21875 4.359375,-0.21875 1.488281,0 3.144531,0.132812 4.96875,0.390625 1.832031,0.25 3.484375,0.601563 4.953125,1.046875 l -1.140625,7.4375 H 18.140625 L 17,-23.390625 h -4.96875 v 3.4375 l 8.921875,6.15625 c 1.269531,0.867187 2.234375,1.824219 2.890625,2.875 0.65625,1.042969 0.984375,2.539063 0.984375,4.484375 0,1.617188 -0.304687,2.902344 -0.90625,3.859375 -0.605469,0.960937 -1.445313,1.679687 -2.515625,2.15625 C 20.34375,0.046875 19.125,0.351562 17.75,0.5 16.382812,0.644531 14.9375,0.71875 13.40625,0.71875 Z m 0,0"
           id="path38" />
      </g>
    </g>
  </g>
  <g
     fill="#f428f9"
     fill-opacity="1"
     id="g44"
     transform="translate(-0.497502,-22.073383)">
    <g
       transform="translate(194.87468,91.46467)"
       id="g43">
      <g
         id="g42">
        <path
           d="M 4.390625,-18.09375 3.25,-25.53125 c 1.625,-0.445312 3.421875,-0.796875 5.390625,-1.046875 1.96875,-0.257813 3.78125,-0.390625 5.4375,-0.390625 1.238281,0 2.523437,0.07422 3.859375,0.21875 1.34375,0.136719 2.601562,0.445312 3.78125,0.921875 1.175781,0.480469 2.128906,1.199219 2.859375,2.15625 0.738281,0.949219 1.109375,2.234375 1.109375,3.859375 v 18 h 1.90625 V 0 h -5.875 L 19.8125,-3.625 h -0.625 c -0.449219,1.273438 -0.945312,2.21875 -1.484375,2.84375 -0.542969,0.617188 -1.25,1.015625 -2.125,1.203125 -0.875,0.195313 -2.011719,0.296875 -3.40625,0.296875 -1.210937,0 -2.429687,-0.054688 -3.65625,-0.15625 C 7.296875,0.46875 6.164062,0.191406 5.125,-0.265625 4.09375,-0.722656 3.257812,-1.492188 2.625,-2.578125 1.988281,-3.660156 1.671875,-5.1875 1.671875,-7.15625 c 0,-1.75 0.269531,-3.148438 0.8125,-4.203125 0.539063,-1.050781 1.285156,-1.835937 2.234375,-2.359375 0.957031,-0.53125 2.039062,-0.878906 3.25,-1.046875 1.207031,-0.175781 2.484375,-0.265625 3.828125,-0.265625 h 4.8125 v -8.359375 h -5.4375 L 9.875,-18.09375 Z M 16.609375,-3.625 v -7.828125 h -6.53125 V -3.625 Z m 0,0"
           id="path41" />
      </g>
    </g>
  </g>
</svg>
