<?xml version="1.0" encoding="UTF-8" standalone="no"?>
<svg
   width="1906.678"
   zoomAndPan="magnify"
   viewBox="0 0 1430.0085 499.58102"
   height="666.10803"
   preserveAspectRatio="xMidYMid"
   version="1.0"
   id="svg43"
   sodipodi:docname="logo-large.svg"
   xmlns:inkscape="http://www.inkscape.org/namespaces/inkscape"
   xmlns:sodipodi="http://sodipodi.sourceforge.net/DTD/sodipodi-0.dtd"
   xmlns="http://www.w3.org/2000/svg"
   xmlns:svg="http://www.w3.org/2000/svg">
  <sodipodi:namedview
     id="namedview43"
     pagecolor="#505050"
     bordercolor="#eeeeee"
     borderopacity="1"
     inkscape:showpageshadow="0"
     inkscape:pageopacity="0"
     inkscape:pagecheckerboard="0"
     inkscape:deskcolor="#505050">
    <inkscape:page
       x="2.6970929e-16"
       y="-1.2944446e-14"
       width="1430.0085"
       height="499.58099"
       id="page2"
       margin="0"
       bleed="0" />
  </sodipodi:namedview>
  <defs
     id="defs1" />
  <g
     fill="#f428f9"
     fill-opacity="1"
     id="g4"
     transform="translate(2.6583922,-187.6527)">
    <g
       transform="translate(4.982233,381.84019)"
       id="g3">
      <g
         id="g2">
        <path
           d="M 59.9375,0 H -7.640625 V -11.625 H 4.890625 L 31.5,-182.5625 H 12.53125 v -11.625 H 150.76562 L 178.90625,-11.625 H 191.75 V 0 H 103.0625 L 98.78125,-45.875 H 59.9375 Z m 0,-175.84375 V -62.6875 H 97.25 L 87.15625,-175.84375 Z m 0,0"
           id="path1" />
      </g>
    </g>
  </g>
  <g
     fill="#f428f9"
     fill-opacity="1"
     id="g7"
     transform="translate(2.6583922,-187.6527)">
    <g
       transform="translate(189.08553,381.84019)"
       id="g6">
      <g
         id="g5">
        <path
           d="M 24.46875,-45.875 V -156.57812 H 12.234375 v -11.625 H 82.5625 v 144.968745 h 44.96875 V -168.20312 H 185.625 V -11.625 h 12.23437 V 0 H 160.25 l -12.23438,-23.234375 h -3.98437 c 0,11.617187 -4.28125,19.15625 -12.84375,22.625 -8.5625,3.46875 -20.07812,5.203125 -34.546875,5.203125 -8.15625,0 -16.46875,-0.308594 -24.9375,-0.921875 C 63.242188,3.054688 55.445312,1.273438 48.3125,-1.671875 41.175781,-4.628906 35.414062,-9.570312 31.03125,-16.5 c -4.375,-6.9375 -6.5625,-16.726562 -6.5625,-29.375 z m 0,0"
           id="path4" />
      </g>
    </g>
  </g>
  <g
     fill="#f428f9"
     fill-opacity="1"
     id="g10"
     transform="translate(2.6583922,-187.6527)">
    <g
       transform="translate(400.71252,381.84019)"
       id="g9">
      <g
         id="g8">
        <path
           d="m 13.765625,-168.20312 h 37 l 6.109375,23.25 h 2.453125 c 3.46875,-10.80079 8.101563,-18.14063 13.90625,-22.01563 5.8125,-3.875 12.898437,-5.8125 21.265625,-5.8125 5.90625,0 12.32813,0.60938 19.26563,1.82813 l -6.42188,50.46874 H 63.921875 v 16.20313 c 0,3.875 0.914063,6.171875 2.75,6.890625 1.832031,0.710937 3.972656,1.0625 6.421875,1.0625 h 11 V -11.625 H 108.875 V 0 H 13.765625 V -11.625 H 26 V -156.57812 H 13.765625 Z m 0,0"
           id="path7" />
      </g>
    </g>
  </g>
  <g
     fill="#f428f9"
     fill-opacity="1"
     id="g13"
     transform="translate(2.6583922,-187.6527)">
    <g
       transform="translate(520.2879,381.84019)"
       id="g12">
      <g
         id="g11">
        <path
           d="m 179.51562,-96.03125 v 23.859375 c 0,15.292969 -1.48046,27.78125 -4.4375,37.46875 -2.96093,9.679687 -7.14062,17.21875 -12.54687,22.625 -5.39844,5.40625 -11.61719,9.28125 -18.65625,11.625 -7.03125,2.34375 -14.73047,3.769531 -23.09375,4.28125 -8.35547,0.507813 -17.01562,0.765625 -25.984375,0.765625 -9.992187,0 -19.574219,-0.464844 -28.75,-1.390625 -9.167969,-0.917969 -17.371094,-3.664063 -24.609375,-8.25 -7.242188,-4.582031 -12.902344,-12.125 -16.984375,-22.625 -4.074219,-10.5 -6.109375,-25.332031 -6.109375,-44.5 V -96.03125 c 0,-15.28906 1.476562,-27.77344 4.4375,-37.45312 2.957031,-9.6875 7.132812,-17.22657 12.53125,-22.625 5.40625,-5.40625 11.625,-9.28125 18.65625,-11.625 7.039062,-2.34375 14.738281,-3.76954 23.09375,-4.28125 8.363281,-0.50782 17.03125,-0.76563 26,-0.76563 10.1875,0 19.81641,0.46094 28.89062,1.375 9.07032,0.91797 17.22657,3.67188 24.46875,8.26563 7.23829,4.58593 12.89454,12.125 16.96875,22.625 4.08204,10.5 6.125,25.32812 6.125,44.48437 z m -58.10937,77.6875 v -131.5 H 76.453125 v 131.5 z m 0,0"
           id="path10" />
      </g>
    </g>
  </g>
  <g
     fill="#f428f9"
     fill-opacity="1"
     id="g16"
     transform="translate(2.6583922,-187.6527)">
    <g
       transform="translate(718.15307,381.84019)"
       id="g15">
      <g
         id="g14">
        <path
           d="m 13.765625,-168.20312 h 37 l 6.109375,23.25 h 2.453125 c 3.46875,-10.80079 8.101563,-18.14063 13.90625,-22.01563 5.8125,-3.875 12.898437,-5.8125 21.265625,-5.8125 5.90625,0 12.32813,0.60938 19.26563,1.82813 l -6.42188,50.46874 H 63.921875 v 16.20313 c 0,3.875 0.914063,6.171875 2.75,6.890625 1.832031,0.710937 3.972656,1.0625 6.421875,1.0625 h 11 V -11.625 H 108.875 V 0 H 13.765625 V -11.625 H 26 V -156.57812 H 13.765625 Z m 0,0"
           id="path13" />
      </g>
    </g>
  </g>
  <g
     fill="#f428f9"
     fill-opacity="1"
     id="g19"
     transform="translate(2.6583922,-187.6527)">
    <g
       transform="translate(837.72841,381.84019)"
       id="g18">
      <g
         id="g17">
        <path
           d="m 28.140625,-115.90625 -7.34375,-47.70312 c 10.394531,-2.85157 21.910156,-5.09375 34.546875,-6.71875 12.644531,-1.63282 24.269531,-2.45313 34.875,-2.45313 7.945312,0 16.20313,0.46094 24.76563,1.375 8.5625,0.91797 16.61328,2.90625 24.15624,5.96875 7.53907,3.05469 13.65625,7.63672 18.34375,13.75 4.69532,6.11719 7.04688,14.375 7.04688,24.78125 V -11.625 h 12.23437 V 0 h -37.625 l -12.23437,-23.234375 h -3.96875 c -2.85547,8.148437 -6.01562,14.210937 -9.48437,18.1875 C 109.98438,-1.066406 105.44531,1.53125 99.84375,2.75 94.238281,3.976562 86.953125,4.59375 77.984375,4.59375 c -7.75,0 -15.554687,-0.308594 -23.40625,-0.921875 C 46.734375,3.054688 39.5,1.273438 32.875,-1.671875 26.25,-4.628906 20.894531,-9.570312 16.8125,-16.5 c -4.074219,-6.9375 -6.109375,-16.726562 -6.109375,-29.375 0,-11.207031 1.726563,-20.175781 5.1875,-26.90625 3.46875,-6.726562 8.257813,-11.773438 14.375,-15.140625 6.125,-3.363281 13.054687,-5.601563 20.796875,-6.71875 7.75,-1.125 15.90625,-1.6875 24.46875,-1.6875 h 30.89063 V -149.84375 H 71.5625 l -8.265625,33.9375 z m 78.281255,92.671875 v -50.15625 H 64.53125 v 50.15625 z m 0,0"
           id="path16" />
      </g>
    </g>
  </g>
  <g
     fill="#f428f9"
     fill-opacity="1"
     id="g22"
     transform="translate(2.6583922,-187.6527)">
    <g
       transform="translate(4.982233,632.18683)"
       id="g21">
      <g
         id="g20">
        <path
           d="M 9.171875,0 V -11.625 H 22.625 V -182.5625 H 9.171875 v -11.625 H 163.92187 v 65.4375 h -35.78125 l -12.54687,-47.09375 H 88.375 v 72.17187 h 58.42187 v 16.82813 H 88.375 v 68.5 h 27.21875 l 12.54687,-47.09375 h 35.78125 V 0 Z m 0,0"
           id="path19" />
      </g>
    </g>
  </g>
  <g
     fill="#f428f9"
     fill-opacity="1"
     id="g25"
     transform="translate(2.6583922,-187.6527)">
    <g
       transform="translate(179.60514,632.18683)"
       id="g24">
      <g
         id="g23">
        <path
           d="M 85.9375,4.59375 C 75.332031,4.59375 63.503906,3.722656 50.453125,1.984375 37.410156,0.253906 25.691406,-1.9375 15.296875,-4.59375 L 22.625,-52.296875 H 57.796875 L 66.0625,-18.34375 h 34.85938 V -40.375 L 43.734375,-79.8125 c -8.15625,-5.507812 -14.328125,-11.625 -18.515625,-18.34375 -4.179688,-6.72656 -6.265625,-16.3125 -6.265625,-28.75 0,-10.40625 1.9375,-18.66406 5.8125,-24.78125 3.875,-6.11328 9.226563,-10.69531 16.0625,-13.75 6.832031,-3.0625 14.628906,-5.05078 23.390625,-5.96875 8.769531,-0.91406 18.046875,-1.375 27.828125,-1.375 9.582035,0 20.234375,0.82031 31.953125,2.45313 11.72656,1.625 22.28125,3.86718 31.65625,6.71875 l -7.34375,47.70312 h -32.10937 l -7.32813,-33.9375 H 77.0625 v 22.01562 L 134.25,-88.375 c 8.15625,5.5 14.32031,11.617188 18.5,18.34375 4.17578,6.730469 6.26562,16.3125 6.26562,28.75 0,10.398438 -1.9375,18.652344 -5.8125,24.765625 C 149.33594,-10.398438 143.98828,-5.8125 137.15625,-2.75 130.32031,0.300781 122.51953,2.285156 113.75,3.203125 104.98828,4.128906 95.71875,4.59375 85.9375,4.59375 Z m 0,0"
           id="path22" />
      </g>
    </g>
  </g>
  <g
     fill="#f428f9"
     fill-opacity="1"
     id="g28"
     transform="translate(2.6583922,-187.6527)">
    <g
       transform="translate(353.92219,632.18683)"
       id="g27">
      <g
         id="g26">
        <path
           d="M 12.234375,-168.20312 H 49.84375 l 12.234375,23.25 H 66.0625 c 3.050781,-8.15625 6.664062,-14.21875 10.84375,-18.1875 4.1875,-3.97657 9.335938,-6.57813 15.453125,-7.79688 6.113281,-1.22656 13.347655,-1.84375 21.703125,-1.84375 9.17578,0 18.04687,0.51172 26.60937,1.53125 8.5625,1.02344 16.25391,3.82422 23.07813,8.40625 6.83203,4.58594 12.23828,12.125 16.21875,22.625 3.97656,10.5 5.96875,25.23047 5.96875,44.1875 v 19.265625 c 0,15.292969 -1.48047,27.78125 -4.4375,37.46875 -2.96094,9.6875 -7.14063,17.234375 -12.54688,22.640625 -5.39843,5.398438 -11.61718,9.265625 -18.65625,11.609375 -7.03125,2.34375 -14.72656,3.773437 -23.07812,4.28125 C 118.86328,-0.253906 110.19531,0 101.21875,0 98.164062,0 95.109375,-0.0507812 92.046875,-0.15625 88.992188,-0.257812 85.9375,-0.410156 82.875,-0.609375 v 44.03125 h 16.515625 v 11.625 H 24.46875 V -156.57812 H 12.234375 Z M 127.82813,-22.9375 V -144.95312 H 82.875 V -22.9375 Z m 0,0"
           id="path25" />
      </g>
    </g>
  </g>
  <g
     fill="#f428f9"
     fill-opacity="1"
     id="g31"
     transform="translate(2.6583922,-187.6527)">
    <g
       transform="translate(558.20952,632.18683)"
       id="g30">
      <g
         id="g29">
        <path
           d="m 56.875,-183.1875 c -9.167969,0 -16.199219,-0.50391 -21.09375,-1.51562 -4.898438,-1.01954 -8.261719,-3.36329 -10.09375,-7.03125 -1.835938,-3.67579 -2.75,-9.28516 -2.75,-16.82813 0,-7.75 0.914062,-13.40625 2.75,-16.96875 1.832031,-3.57031 5.195312,-5.86719 10.09375,-6.89062 4.894531,-1.01954 11.925781,-1.53125 21.09375,-1.53125 8.15625,0 14.375,0.51171 18.65625,1.53125 4.28125,1.02343 7.234375,3.32031 8.859375,6.89062 1.632813,3.5625 2.453125,9.21875 2.453125,16.96875 0,7.54297 -0.820312,13.15234 -2.453125,16.82813 -1.625,3.66796 -4.578125,6.01171 -8.859375,7.03125 -4.28125,1.01171 -10.5,1.51562 -18.65625,1.51562 z M 96.328125,0 h -82.5625 V -11.625 H 26 V -156.57812 H 13.765625 v -11.625 H 84.09375 V -11.625 h 12.234375 z m 0,0"
           id="path28" />
      </g>
    </g>
  </g>
  <g
     fill="#f428f9"
     fill-opacity="1"
     id="g34"
     transform="translate(2.6583922,-187.6527)">
    <g
       transform="translate(666.77535,632.18683)"
       id="g33">
      <g
         id="g32">
        <path
           d="M 199.39062,0 H 129.04687 V -144.95312 H 84.09375 V 0 H 13.765625 V -11.625 H 26 V -156.57812 H 13.765625 v -11.625 H 54.4375 l 10.703125,23.25 h 3.96875 c 3.0625,-8.15625 7.140625,-14.21875 12.234375,-18.1875 5.09375,-3.97657 11.410156,-6.57813 18.95313,-7.79688 7.55078,-1.22656 16.42187,-1.84375 26.60937,-1.84375 12.4375,0 23.14062,1.32813 32.10937,3.98438 8.97657,2.64843 15.91016,7.28125 20.79688,13.90625 4.89453,6.625 7.34375,15.95312 7.34375,27.98437 V -11.625 h 12.23437 z m 0,0"
           id="path31" />
      </g>
    </g>
  </g>
  <g
     fill="#f428f9"
     fill-opacity="1"
     id="g37"
     transform="translate(2.6583922,-187.6527)">
    <g
       transform="translate(878.40234,632.18683)"
       id="g36">
      <g
         id="g35">
        <path
           d="m 179.51562,-96.03125 v 23.859375 c 0,15.292969 -1.48046,27.78125 -4.4375,37.46875 -2.96093,9.679687 -7.14062,17.21875 -12.54687,22.625 -5.39844,5.40625 -11.61719,9.28125 -18.65625,11.625 -7.03125,2.34375 -14.73047,3.769531 -23.09375,4.28125 -8.35547,0.507813 -17.01562,0.765625 -25.984375,0.765625 -9.992187,0 -19.574219,-0.464844 -28.75,-1.390625 -9.167969,-0.917969 -17.371094,-3.664063 -24.609375,-8.25 -7.242188,-4.582031 -12.902344,-12.125 -16.984375,-22.625 -4.074219,-10.5 -6.109375,-25.332031 -6.109375,-44.5 V -96.03125 c 0,-15.28906 1.476562,-27.77344 4.4375,-37.45312 2.957031,-9.6875 7.132812,-17.22657 12.53125,-22.625 5.40625,-5.40625 11.625,-9.28125 18.65625,-11.625 7.039062,-2.34375 14.738281,-3.76954 23.09375,-4.28125 8.363281,-0.50782 17.03125,-0.76563 26,-0.76563 10.1875,0 19.81641,0.46094 28.89062,1.375 9.07032,0.91797 17.22657,3.67188 24.46875,8.26563 7.23829,4.58593 12.89454,12.125 16.96875,22.625 4.08204,10.5 6.125,25.32812 6.125,44.48437 z m -58.10937,77.6875 v -131.5 H 76.453125 v 131.5 z m 0,0"
           id="path34" />
      </g>
    </g>
  </g>
  <g
     fill="#f428f9"
     fill-opacity="1"
     id="g40"
     transform="translate(2.6583922,-187.6527)">
    <g
       transform="translate(1076.2675,632.18683)"
       id="g39">
      <g
         id="g38">
        <path
           d="M 85.9375,4.59375 C 75.332031,4.59375 63.503906,3.722656 50.453125,1.984375 37.410156,0.253906 25.691406,-1.9375 15.296875,-4.59375 L 22.625,-52.296875 H 57.796875 L 66.0625,-18.34375 h 34.85938 V -40.375 L 43.734375,-79.8125 c -8.15625,-5.507812 -14.328125,-11.625 -18.515625,-18.34375 -4.179688,-6.72656 -6.265625,-16.3125 -6.265625,-28.75 0,-10.40625 1.9375,-18.66406 5.8125,-24.78125 3.875,-6.11328 9.226563,-10.69531 16.0625,-13.75 6.832031,-3.0625 14.628906,-5.05078 23.390625,-5.96875 8.769531,-0.91406 18.046875,-1.375 27.828125,-1.375 9.582035,0 20.234375,0.82031 31.953125,2.45313 11.72656,1.625 22.28125,3.86718 31.65625,6.71875 l -7.34375,47.70312 h -32.10937 l -7.32813,-33.9375 H 77.0625 v 22.01562 L 134.25,-88.375 c 8.15625,5.5 14.32031,11.617188 18.5,18.34375 4.17578,6.730469 6.26562,16.3125 6.26562,28.75 0,10.398438 -1.9375,18.652344 -5.8125,24.765625 C 149.33594,-10.398438 143.98828,-5.8125 137.15625,-2.75 130.32031,0.300781 122.51953,2.285156 113.75,3.203125 104.98828,4.128906 95.71875,4.59375 85.9375,4.59375 Z m 0,0"
           id="path37" />
      </g>
    </g>
  </g>
  <g
     fill="#f428f9"
     fill-opacity="1"
     id="g43"
     transform="translate(2.6583922,-187.6527)">
    <g
       transform="translate(1250.5845,632.18683)"
       id="g42">
      <g
         id="g41">
        <path
           d="m 28.140625,-115.90625 -7.34375,-47.70312 c 10.394531,-2.85157 21.910156,-5.09375 34.546875,-6.71875 12.644531,-1.63282 24.269531,-2.45313 34.875,-2.45313 7.945312,0 16.20313,0.46094 24.76563,1.375 8.5625,0.91797 16.61328,2.90625 24.15624,5.96875 7.53907,3.05469 13.65625,7.63672 18.34375,13.75 4.69532,6.11719 7.04688,14.375 7.04688,24.78125 V -11.625 h 12.23437 V 0 h -37.625 l -12.23437,-23.234375 h -3.96875 c -2.85547,8.148437 -6.01562,14.210937 -9.48437,18.1875 C 109.98438,-1.066406 105.44531,1.53125 99.84375,2.75 94.238281,3.976562 86.953125,4.59375 77.984375,4.59375 c -7.75,0 -15.554687,-0.308594 -23.40625,-0.921875 C 46.734375,3.054688 39.5,1.273438 32.875,-1.671875 26.25,-4.628906 20.894531,-9.570312 16.8125,-16.5 c -4.074219,-6.9375 -6.109375,-16.726562 -6.109375,-29.375 0,-11.207031 1.726563,-20.175781 5.1875,-26.90625 3.46875,-6.726562 8.257813,-11.773438 14.375,-15.140625 6.125,-3.363281 13.054687,-5.601563 20.796875,-6.71875 7.75,-1.125 15.90625,-1.6875 24.46875,-1.6875 h 30.89063 V -149.84375 H 71.5625 l -8.265625,33.9375 z m 78.281255,92.671875 v -50.15625 H 64.53125 v 50.15625 z m 0,0"
           id="path40" />
      </g>
    </g>
  </g>
</svg>
