<svg xmlns="http://www.w3.org/2000/svg" xmlns:xlink="http://www.w3.org/1999/xlink" width="500" zoomAndPan="magnify" viewBox="0 0 375 374.999991" height="500" preserveAspectRatio="xMidYMid meet" version="1.0"><defs><clipPath id="cec0634cce"><path d="M 0 46.640625 L 375 46.640625 L 375 328.640625 L 0 328.640625 Z M 0 46.640625 " clip-rule="nonzero"/></clipPath></defs><path stroke-linecap="butt" transform="matrix(0.75, 0, 0, 0.75, 127.499996, 185.999988)" fill="none" stroke-linejoin="miter" d="M 0.00000516333 2.000016 L 160.000016 2.000016 " stroke="#ffffff" stroke-width="4" stroke-opacity="1" stroke-miterlimit="4"/><g clip-path="url(#cec0634cce)"><path fill="#ffffff" d="M 24.929688 328.238281 C 11.179688 328.238281 0 317.054688 0 303.304688 L 0 89.425781 C 0 75.679688 11.183594 64.5 24.929688 64.5 L 35.082031 64.5 C 35.640625 54.609375 43.863281 46.738281 53.886719 46.738281 L 105.503906 46.738281 C 115.53125 46.738281 123.75 54.609375 124.308594 64.5 L 267.441406 64.5 C 268.242188 54.570312 276.582031 46.738281 286.710938 46.738281 L 307.472656 46.738281 C 317.605469 46.738281 325.941406 54.570312 326.742188 64.5 L 350.082031 64.5 C 363.828125 64.5 375.011719 75.683594 375.011719 89.425781 L 375.011719 303.304688 C 375.011719 317.054688 363.828125 328.238281 350.082031 328.238281 Z M 24.929688 328.238281 " fill-opacity="1" fill-rule="nonzero"/></g><path fill="#f428f9" d="M 15.46875 291.574219 L 359.539062 291.574219 L 359.539062 142.328125 L 266.246094 142.328125 C 275.578125 156.875 281.015625 174.144531 281.015625 192.671875 C 281.015625 244.234375 239.066406 286.183594 187.503906 286.183594 C 135.941406 286.183594 93.996094 244.234375 93.996094 192.671875 C 93.996094 174.144531 99.433594 156.875 108.765625 142.328125 L 15.46875 142.328125 Z M 15.46875 291.574219 " fill-opacity="1" fill-rule="nonzero"/><path fill="#b9ffff" d="M 187.503906 99.160156 C 218.625 99.160156 246.226562 114.457031 263.234375 137.90625 L 359.539062 137.90625 L 359.539062 89.425781 C 359.539062 84.210938 355.296875 79.96875 350.082031 79.96875 L 24.929688 79.96875 C 19.714844 79.96875 15.46875 84.210938 15.46875 89.425781 L 15.46875 137.90625 L 111.773438 137.90625 C 128.785156 114.457031 156.382812 99.160156 187.503906 99.160156 Z M 334.90625 106.105469 L 334.90625 111.515625 C 334.90625 115.117188 331.976562 118.046875 328.371094 118.046875 L 301.210938 118.046875 C 297.605469 118.046875 294.675781 115.117188 294.675781 111.515625 L 294.675781 106.105469 C 294.675781 102.503906 297.605469 99.570312 301.210938 99.570312 L 328.371094 99.570312 C 331.976562 99.570312 334.90625 102.503906 334.90625 106.105469 Z M 334.90625 106.105469 " fill-opacity="1" fill-rule="nonzero"/><path fill="#f428f9" d="M 301.210938 103.992188 L 328.371094 103.992188 C 329.539062 103.992188 330.484375 104.941406 330.484375 106.105469 L 330.484375 111.515625 C 330.484375 112.683594 329.539062 113.632812 328.371094 113.632812 L 301.210938 113.632812 C 300.042969 113.632812 299.09375 112.683594 299.09375 111.515625 L 299.09375 106.105469 C 299.09375 104.941406 300.042969 103.992188 301.207031 103.992188 Z M 301.210938 103.992188 " fill-opacity="1" fill-rule="nonzero"/><path fill="#000000" d="M 294.675781 106.105469 L 294.675781 111.515625 C 294.675781 115.117188 297.605469 118.046875 301.210938 118.046875 L 328.371094 118.046875 C 331.976562 118.046875 334.90625 115.117188 334.90625 111.515625 L 334.90625 106.105469 C 334.90625 102.503906 331.976562 99.570312 328.371094 99.570312 L 301.210938 99.570312 C 297.605469 99.570312 294.675781 102.503906 294.675781 106.105469 Z M 330.484375 106.105469 L 330.484375 111.515625 C 330.484375 112.679688 329.535156 113.628906 328.371094 113.628906 L 301.210938 113.628906 C 300.046875 113.628906 299.097656 112.679688 299.097656 111.515625 L 299.097656 106.105469 C 299.097656 104.941406 300.046875 103.988281 301.210938 103.988281 L 328.371094 103.988281 C 329.535156 103.988281 330.484375 104.941406 330.484375 106.105469 Z M 330.484375 106.105469 " fill-opacity="1" fill-rule="nonzero"/><path fill="#b9ffff" d="M 15.46875 303.304688 C 15.46875 308.523438 19.714844 312.769531 24.929688 312.769531 L 350.082031 312.769531 C 355.296875 312.769531 359.539062 308.523438 359.539062 303.304688 L 359.539062 295.992188 L 15.46875 295.992188 Z M 15.46875 303.304688 " fill-opacity="1" fill-rule="nonzero"/><path fill="#000000" d="M 24.929688 317.1875 L 350.082031 317.1875 C 357.734375 317.1875 363.960938 310.960938 363.960938 303.304688 L 363.960938 89.425781 C 363.960938 81.773438 357.734375 75.546875 350.082031 75.546875 L 315.585938 75.546875 C 315.695312 75.011719 315.753906 74.464844 315.753906 73.898438 L 315.753906 66.066406 C 315.753906 61.503906 312.039062 57.785156 307.472656 57.785156 L 286.710938 57.785156 C 282.144531 57.785156 278.429688 61.5 278.429688 66.066406 L 278.429688 73.898438 C 278.429688 74.464844 278.488281 75.011719 278.597656 75.546875 L 113.175781 75.546875 C 113.230469 75.167969 113.292969 74.789062 113.292969 74.390625 L 113.292969 65.574219 C 113.292969 61.28125 109.796875 57.785156 105.507812 57.785156 L 53.890625 57.785156 C 49.597656 57.785156 46.105469 61.28125 46.105469 65.574219 L 46.105469 74.390625 C 46.105469 74.789062 46.164062 75.167969 46.222656 75.546875 L 24.933594 75.546875 C 17.277344 75.546875 11.054688 81.773438 11.054688 89.425781 L 11.054688 303.304688 C 11.054688 310.960938 17.277344 317.1875 24.933594 317.1875 Z M 15.46875 89.425781 C 15.46875 84.210938 19.714844 79.96875 24.929688 79.96875 L 350.082031 79.96875 C 355.296875 79.96875 359.539062 84.210938 359.539062 89.425781 L 359.539062 137.90625 L 263.234375 137.90625 C 246.226562 114.457031 218.625 99.160156 187.503906 99.160156 C 156.382812 99.160156 128.785156 114.457031 111.773438 137.90625 L 15.46875 137.90625 Z M 359.539062 303.304688 C 359.539062 308.523438 355.296875 312.769531 350.082031 312.769531 L 24.929688 312.769531 C 19.714844 312.769531 15.46875 308.523438 15.46875 303.304688 L 15.46875 295.992188 L 359.539062 295.992188 Z M 187.503906 103.578125 C 236.628906 103.578125 276.597656 143.546875 276.597656 192.671875 C 276.597656 241.796875 236.628906 281.761719 187.503906 281.761719 C 138.378906 281.761719 98.414062 241.792969 98.414062 192.671875 C 98.414062 143.546875 138.382812 103.578125 187.503906 103.578125 Z M 93.996094 192.671875 C 93.996094 244.230469 135.945312 286.179688 187.503906 286.179688 C 239.066406 286.179688 281.015625 244.230469 281.015625 192.671875 C 281.015625 174.144531 275.578125 156.871094 266.246094 142.328125 L 359.539062 142.328125 L 359.539062 291.570312 L 15.46875 291.570312 L 15.46875 142.328125 L 108.761719 142.328125 C 99.429688 156.875 93.992188 174.144531 93.992188 192.671875 Z M 93.996094 192.671875 " fill-opacity="1" fill-rule="nonzero"/><path fill="#b9ffff" d="M 187.503906 281.761719 C 236.628906 281.761719 276.597656 241.796875 276.597656 192.671875 C 276.597656 143.550781 236.628906 103.582031 187.503906 103.582031 C 138.378906 103.582031 98.414062 143.546875 98.414062 192.671875 C 98.414062 241.796875 138.382812 281.761719 187.503906 281.761719 Z M 187.503906 129.058594 C 194.277344 129.058594 200.804688 130.132812 206.929688 132.105469 C 210.625 127.023438 216.597656 123.695312 223.34375 123.695312 C 234.535156 123.695312 243.640625 132.800781 243.640625 143.992188 C 243.640625 148.5625 242.105469 152.769531 239.550781 156.164062 C 246.824219 166.503906 251.117188 179.09375 251.117188 192.671875 C 251.117188 227.75 222.582031 256.285156 187.507812 256.285156 C 152.429688 256.285156 123.894531 227.746094 123.894531 192.671875 C 123.894531 157.597656 152.429688 129.058594 187.507812 129.058594 Z M 187.503906 129.058594 " fill-opacity="1" fill-rule="nonzero"/><path fill="#000000" d="M 187.503906 256.28125 C 222.582031 256.28125 251.113281 227.746094 251.113281 192.671875 C 251.113281 179.089844 246.824219 166.503906 239.546875 156.160156 C 242.105469 152.765625 243.640625 148.558594 243.640625 143.992188 C 243.640625 132.800781 234.535156 123.695312 223.34375 123.695312 C 216.59375 123.695312 210.617188 127.019531 206.929688 132.101562 C 200.800781 130.132812 194.273438 129.058594 187.503906 129.058594 C 152.425781 129.058594 123.890625 157.59375 123.890625 192.671875 C 123.890625 227.746094 152.425781 256.28125 187.503906 256.28125 Z M 223.34375 128.113281 C 232.101562 128.113281 239.222656 135.238281 239.222656 143.992188 C 239.222656 152.746094 232.101562 159.867188 223.34375 159.867188 C 214.589844 159.867188 207.46875 152.746094 207.46875 143.992188 C 207.46875 135.238281 214.589844 128.113281 223.34375 128.113281 Z M 198.359375 166.988281 C 202.558594 166.988281 205.976562 170.40625 205.976562 174.605469 C 205.976562 178.808594 202.558594 182.222656 198.359375 182.222656 C 194.164062 182.222656 190.742188 178.808594 190.742188 174.605469 C 190.742188 170.40625 194.164062 166.988281 198.359375 166.988281 Z M 198.359375 166.988281 " fill-opacity="1" fill-rule="nonzero"/><path fill="#b9ffff" d="M 207.46875 143.992188 C 207.46875 152.746094 214.589844 159.867188 223.34375 159.867188 C 232.101562 159.867188 239.222656 152.746094 239.222656 143.992188 C 239.222656 135.238281 232.101562 128.113281 223.34375 128.113281 C 214.589844 128.113281 207.46875 135.238281 207.46875 143.992188 Z M 207.46875 143.992188 " fill-opacity="1" fill-rule="nonzero"/><path fill="#b9ffff" d="M 205.976562 174.605469 C 205.976562 175.105469 205.929688 175.601562 205.832031 176.09375 C 205.734375 176.582031 205.589844 177.058594 205.398438 177.519531 C 205.207031 177.984375 204.972656 178.421875 204.695312 178.835938 C 204.417969 179.253906 204.101562 179.636719 203.746094 179.992188 C 203.394531 180.34375 203.007812 180.660156 202.59375 180.9375 C 202.175781 181.21875 201.738281 181.453125 201.277344 181.644531 C 200.8125 181.835938 200.335938 181.980469 199.847656 182.078125 C 199.355469 182.175781 198.859375 182.222656 198.359375 182.222656 C 197.859375 182.222656 197.367188 182.175781 196.875 182.078125 C 196.382812 181.980469 195.90625 181.835938 195.445312 181.644531 C 194.984375 181.453125 194.546875 181.21875 194.128906 180.9375 C 193.714844 180.660156 193.328125 180.34375 192.976562 179.992188 C 192.621094 179.636719 192.304688 179.253906 192.027344 178.835938 C 191.75 178.421875 191.515625 177.984375 191.324219 177.519531 C 191.132812 177.058594 190.988281 176.582031 190.890625 176.09375 C 190.792969 175.601562 190.742188 175.105469 190.742188 174.605469 C 190.742188 174.105469 190.792969 173.609375 190.890625 173.121094 C 190.988281 172.628906 191.132812 172.152344 191.324219 171.691406 C 191.515625 171.230469 191.75 170.789062 192.027344 170.375 C 192.304688 169.957031 192.621094 169.574219 192.976562 169.21875 C 193.328125 168.867188 193.714844 168.550781 194.128906 168.273438 C 194.546875 167.996094 194.984375 167.761719 195.445312 167.570312 C 195.90625 167.378906 196.382812 167.234375 196.875 167.136719 C 197.367188 167.039062 197.859375 166.988281 198.359375 166.988281 C 198.859375 166.988281 199.355469 167.039062 199.847656 167.136719 C 200.335938 167.234375 200.8125 167.378906 201.277344 167.570312 C 201.738281 167.761719 202.175781 167.996094 202.59375 168.273438 C 203.007812 168.550781 203.394531 168.867188 203.746094 169.21875 C 204.101562 169.574219 204.417969 169.957031 204.695312 170.375 C 204.972656 170.789062 205.207031 171.230469 205.398438 171.691406 C 205.589844 172.152344 205.734375 172.628906 205.832031 173.121094 C 205.929688 173.609375 205.976562 174.105469 205.976562 174.605469 Z M 205.976562 174.605469 " fill-opacity="1" fill-rule="nonzero"/><path fill="#000000" d="M 301.585938 142.410156 L 269.835938 148.421875 L 266.210938 146.113281 L 263.039062 141.644531 Z M 301.585938 142.410156 " fill-opacity="1" fill-rule="nonzero"/></svg>